<?xml version="1.0" encoding="UTF-8"?>
<svg id="Layer_1" xmlns="http://www.w3.org/2000/svg" version="1.1" viewBox="0 0 520.5 192.5">
  <!-- Generator: Adobe Illustrator 29.4.0, SVG Export Plug-In . SVG Version: 2.1.0 Build 152)  -->
  <defs>
    <style>
      .st0 {
        fill: #fff;
      }
    </style>
  </defs>
  <g id="acdSQG">
    <path class="st0" d="M355.64,27.44c-2.64,4.34-4.55,8.9-5.74,13.67-4.37,17.29-1.09,29.66.27,46.52,2.09,24.45-19.03,46.3-41.89,60.63-22.85,14.33-12.75,7.96-16.03,8.97s-4.01-.36-6.19-.43c-.18-.72.27-.72.73-1.01,3-2.17,7.01-4.12,10.2-6.37,18.76-13.75,31.05-34.8,29.96-55.28,0-.43.36-1.37-.46-1.23-4.64,20.4-14.11,43.34-37.7,54.55,1.73-5.86,2.64-11.87,2.28-17.87-1.09-17.94-8.01-29.66-3-48.91,7.19-27.64,35.69-44.57,67.56-53.25Z"/>
    <path class="st0" d="M228.8,62.82c2.37,9.98,9.83,20.04,19.58,26.55s12.38,6.15,17.94,9.91c13.2,8.97,23.49,25.18,22.49,39.21-.73,9.98-7.1,17.8-12.29,26.55-.82.07-.36-.8-.36-1.16.55-3.47,2-7.09,2.55-10.64,1.91-13.31-3-27.85-15.21-37.33-.36,0-.27.36-.18.51.55,1.09,3.19,3.62,4.19,4.99,9.2,13.1,13.29,27.71,6.1,42.11-1.73-3.4-2.82-6.87-4.92-10.2-10.47-16.21-28.04-15.7-41.89-27.71-20.31-17.51-18.03-38.92-2.73-58.03,1-1.23,2.37-3.11,3.46-4.12s.46-.72,1.27-.58v-.07Z"/>
  </g>
</svg>